<svg id="Capa_1_1" xmlns="http://www.w3.org/2000/svg" width="36" height="31" viewBox="0 0 130 113" fill="#172E5F">
  <defs>
    <style>
      .cls-1 {
        fill-rule: evenodd;
      }
    </style>
  </defs>
  <path id="Trazado_compuesto" data-name="Trazado compuesto" class="cls-1" 
    d="M48.625,74.019A17.84,17.84,0,0,1,46.6,77.363a9.181,9.181,0,0,1-7.183,3.524H12.254v26.239H0V0.18H40.233a8.029,8.029,0,0,1,5.705,2.681c1.781,1.778,2.686,3.472,2.686,5.032V74.019h0ZM128.831,113l-9.206-7.561c-0.452,1.114-1.691,1.687-3.712,1.687H87.835c0.2-.256.374-0.511,0.539-0.764a9.28,9.28,0,0,0,1.643-5.111V97.425h20.222L96.625,84.712l0.242-14.821,13.19,13.255V9.881H90.017V5.513A10.384,10.384,0,0,0,88.723.506l0.008,0L88.55,0.18h27.363c1.237,0,2.565.783,4.044,2.35A9.48,9.48,0,0,1,122.8,9.218V91.732l6.036,7.2V113h0Zm-45.11-11.749V84.507H71.466V97.575h-23.3v-13.2a15.725,15.725,0,0,1-2.086,1.234l0,0.01a14.937,14.937,0,0,1-6.664,1.549H36.272v14.591a4.644,4.644,0,0,0,2.082,3.766,6.881,6.881,0,0,0,4.105,1.6H76.024a7.775,7.775,0,0,0,5.282-2.17c1.6-1.432,2.415-2.694,2.415-3.7h0ZM51.812,0H77.864a6.4,6.4,0,0,1,3.773,1.687,4.844,4.844,0,0,1,2.084,3.826v13.7H71.466V9.7H54.921V7.893a11.364,11.364,0,0,0-1.437-5.379A16.207,16.207,0,0,0,51.812,0h0ZM36.22,71.337V9.4H12.254V71.337H36.22Z"/>
</svg>
